<svg xmlns="http://www.w3.org/2000/svg" viewBox="-14 -10 282 212" width="256" height="256">
  <path fill="#3A4DEA" d="M228.9045579968,5.5566080578h-41.2916135538l-26.2084477562,43.0777174442L124.8464283179,0l-36.245721036,48.2181975538L62.6458576935,5.5566080578H21.3536695757C9.5791303422,5.5566080578,0,15.1357383999,0,26.9097030695v50.4582069726c0,3.9070349284,1.1048864952,7.7169685476,3.1957247459,11.0178384981l59.1956011133,93.467766767c3.8978419051,6.1547291402,10.573700557,9.8652631943,17.8585970066,9.9273161019.0614783437.0011491279.1229566875.0011491279.1850095951.0011491279,7.2136505186,0,13.8722722517-3.5887264945,17.8402109599-9.623946331l26.8538985449-40.8529339703,26.8540421859,40.8517848424c3.9679387082,6.0375180923,10.6259858774,9.625095459,17.8402109599,9.625095459.0609037798,0,.1229566875,0,.1838604672-.0011491279,7.2854710136-.0609037798,13.9619042295-3.7725869618,17.8597461346-9.9273161019l59.1961756773-93.467766767c2.0902636867-3.3008699506,3.1957247459-7.1108035697,3.1957247459-11.0178384981V26.9097030695c0-11.7739646696-9.5791303422-21.3530950117-21.3542441397-21.3530950117ZM124.8464283179,29.3751570221l26.6805956904,35.4943350173-26.3981256836,43.389490213-26.650790185-43.8054745201,26.3683201781-35.0783507102ZM17.6506048531,77.3679100421V26.9097030695c0-2.0414257501,1.6610644085-3.7024901586,3.7030647226-3.7024901586h31.3706176554l24.4578950109,40.2011629781-37.4013128007,49.7555152495-21.67348624-34.2216758457c-.2987732592-.4717170112-.4567783482-1.0158290814-.4567783482-1.5743052506ZM83.5260865661,172.4616928161c-.963543761,1.467436354-2.3689272073,1.6731302517-3.1262025067,1.6696828679-.7538279156-.0068947675-2.15748767-.2390186074-3.0968997447-1.7213936244l-27.4247996597-43.302874696,37.181398445-49.4632776553,27.6279798401,45.4117398909-31.161476374,47.4061232168ZM172.9558178218,172.4099820597c-.9388375107,1.482375017-2.3442209571,1.7144988568-3.0968997447,1.7213936244-.7883017532-.0034473838-2.1603604898-.201097386-3.1256279427-1.6696828679l-31.1632000658-47.4061232168,27.3753153386-44.9956837633,37.1760837284,49.4568856312-27.1656713137,42.8932105925ZM232.6081972833,77.3679100421c0,.5584761692-.1574305251,1.1025882394-.4562037843,1.5743052506l-21.9331173294,34.6313399493-37.3959262636-49.7489795844,24.7115649993-40.6173627467h31.3700430915c2.0420003141,0,3.7036392866,1.6610644085,3.7036392866,3.7024901586v50.4582069726Z"/>
</svg>
