<?xml version="1.0" encoding="UTF-8"?>
<svg id="Layer_2" data-name="Layer 2" xmlns="http://www.w3.org/2000/svg" viewBox="0 0 739.7270163851 191.7819805372">
  <defs>
    <style>
      .cls-1 {
        fill: #3a4dea;
      }

      .cls-2 {
        fill: #110e13;
      }
    </style>
  </defs>
  <g id="Layer_1-2" data-name="Layer 1">
    <path class="cls-1" d="M228.9045579968,5.5566080578h-41.2916135538l-26.2084477562,43.0777174442L124.8464283179,0l-36.245721036,48.2181975538L62.6458576935,5.5566080578H21.3536695757C9.5791303422,5.5566080578,0,15.1357383999,0,26.9097030695v50.4582069726c0,3.9070349284,1.1048864952,7.7169685476,3.1957247459,11.0178384981l59.1956011133,93.467766767c3.8978419051,6.1547291402,10.573700557,9.8652631943,17.8585970066,9.9273161019.0614783437.0011491279.1229566875.0011491279.1850095951.0011491279,7.2136505186,0,13.8722722517-3.5887264945,17.8402109599-9.623946331l26.8538985449-40.8529339703,26.8540421859,40.8517848424c3.9679387082,6.0375180923,10.6259858774,9.625095459,17.8402109599,9.625095459.0609037798,0,.1229566875,0,.1838604672-.0011491279,7.2854710136-.0609037798,13.9619042295-3.7725869618,17.8597461346-9.9273161019l59.1961756773-93.467766767c2.0902636867-3.3008699506,3.1957247459-7.1108035697,3.1957247459-11.0178384981V26.9097030695c0-11.7739646696-9.5791303422-21.3530950117-21.3542441397-21.3530950117ZM124.8464283179,29.3751570221l26.6805956904,35.4943350173-26.3981256836,43.389490213-26.650790185-43.8054745201,26.3683201781-35.0783507102ZM17.6506048531,77.3679100421V26.9097030695c0-2.0414257501,1.6610644085-3.7024901586,3.7030647226-3.7024901586h31.3706176554l24.4578950109,40.2011629781-37.4013128007,49.7555152495-21.67348624-34.2216758457c-.2987732592-.4717170112-.4567783482-1.0158290814-.4567783482-1.5743052506ZM83.5260865661,172.4616928161c-.963543761,1.467436354-2.3689272073,1.6731302517-3.1262025067,1.6696828679-.7538279156-.0068947675-2.15748767-.2390186074-3.0968997447-1.7213936244l-27.4247996597-43.302874696,37.181398445-49.4632776553,27.6279798401,45.4117398909-31.161476374,47.4061232168ZM172.9558178218,172.4099820597c-.9388375107,1.482375017-2.3442209571,1.7144988568-3.0968997447,1.7213936244-.7883017532-.0034473838-2.1603604898-.201097386-3.1256279427-1.6696828679l-31.1632000658-47.4061232168,27.3753153386-44.9956837633,37.1760837284,49.4568856312-27.1656713137,42.8932105925ZM232.6081972833,77.3679100421c0,.5584761692-.1574305251,1.1025882394-.4562037843,1.5743052506l-21.9331173294,34.6313399493-37.3959262636-49.7489795844,24.7115649993-40.6173627467h31.3700430915c2.0420003141,0,3.7036392866,1.6610644085,3.7036392866,3.7024901586v50.4582069726Z"/>
    <path class="cls-2" d="M368.6038003398,142.2332572476l-15.6254923192-61.1667434401-15.4926875989,61.1667434401h-20.1659780276l-25.5080778136-89.0796634866h21.2343979848l15.6254923192,64.3720033117,16.960718156-64.3720033117h14.8250746805l16.8279134357,64.3720033117,15.49149116-64.3720033117h21.368399144l-25.3752730933,89.0796634866h-20.1659780276Z"/>
    <path class="cls-2" d="M446.6056358491,76.1252210603c19.2315592296,0,32.3194045956,14.4230712028,32.3194045956,35.5246644672v3.7388716307h-47.9448969148c1.0684199572,8.1465526188,7.6129408597,14.9578794008,18.5639463112,14.9578794008,6.0097127044,0,13.087845366-2.403645794,17.2287204745-6.4105197432l7.4789397004,10.9522018905c-6.5445209025,6.0097127044-16.5611075561,8.9481666964-26.5776942097,8.9481666964-19.6323662684,0-34.45624451-13.2218465252-34.45624451-33.9226327509,0-18.6979474705,13.7554582844-33.7886315916,33.3878245528-33.7886315916ZM430.7133376503,103.9041399476h31.7857928365c-.4008070388-6.1437138636-4.6744868676-14.2902664824-15.8934946377-14.2902664824-10.5501984128,0-15.0906841211,7.8797467392-15.8922981988,14.2902664824Z"/>
    <path class="cls-2" d="M491.2148610498,142.2332572476V53.1535937611h16.9619145949v32.8542127937c5.0740974675-6.5445209025,12.2862312884-9.8825854944,19.899172148-9.8825854944,16.4271063968,0,28.5805329649,12.8210394864,28.5805329649,33.921436312,0,21.5024003033-12.2874277273,33.7898280306-28.5805329649,33.7898280306-7.74574558,0-14.8250746805-3.4732621901-19.899172148-9.7497807741v8.1465526188h-16.9619145949ZM508.1767756447,121.532471022c2.8044528328,4.1396786696,9.0809714168,7.2121338208,14.557072362,7.2121338208,9.8825854944,0,16.4271063968-7.4789397004,16.4271063968-18.6979474705,0-11.2178113312-6.5445209025-18.8307521908-16.4271063968-18.8307521908-5.4761009453,0-11.7526195292,3.2052598716-14.557072362,7.4789397004v22.83762614Z"/>
    <path class="cls-2" d="M567.7450766852,58.0948865082c0-5.6089056656,4.6744868676-10.149391374,10.1505878129-10.149391374,5.6089056656,0,10.149391374,4.5404857084,10.149391374,10.149391374s-4.5404857084,10.1505878129-10.149391374,10.1505878129c-5.4761009453,0-10.1505878129-4.5416821473-10.1505878129-10.1505878129Z"/>
    <rect class="cls-2" x="569.4811095608" y="77.7272527767" width="16.9619145949" height="64.5060044709"/>
    <path class="cls-1" d="M719.4270371982,133.68589759c0-5.6089056656,4.6744868676-10.149391374,10.1505878129-10.149391374,5.6089056656,0,10.149391374,4.5404857084,10.149391374,10.149391374s-4.5404857084,10.1505878129-10.149391374,10.1505878129c-5.4761009453,0-10.1505878129-4.5416821473-10.1505878129-10.1505878129Z"/>
    <path class="cls-2" d="M603.2697411524,142.2332572476v-64.5060044709h16.9619145949v8.8141655372c4.5404857084-5.7429068248,12.5530371679-10.2833925332,20.5667850664-10.2833925332v16.5611075561c-1.2024211164-.2668058796-2.8044528328-.4008070388-4.6744868676-.4008070388-5.6089056656,0-13.087845366,3.0712587124-15.8922981988,7.2121338208v42.6027971288h-16.9619145949Z"/>
    <path class="cls-2" d="M647.2101569958,109.913852652c0-18.2971404317,12.8210394864-33.7886315916,34.0554374712-33.7886315916,21.368399144,0,34.1894386305,15.49149116,34.1894386305,33.7886315916,0,18.429945152-12.8210394864,33.9226327509-34.1894386305,33.9226327509-21.2343979848,0-34.0554374712-15.4926875989-34.0554374712-33.9226327509ZM697.8267020231,109.913852652c0-10.0165866536-6.0097127044-18.6979474705-16.5611075561-18.6979474705-10.5501984128,0-16.4259099579,8.6813608169-16.4259099579,18.6979474705,0,10.149391374,5.8757115451,18.8307521908,16.4259099579,18.8307521908,10.5513948517,0,16.5611075561-8.6813608169,16.5611075561-18.8307521908Z"/>
  </g>
</svg>