<svg xmlns="http://www.w3.org/2000/svg" viewBox="0 0 24 24"><path fill="#FF9900" d="M14.4 14.5c-2.1 1.6-5.2 2.4-7.8 2.4-3.7 0-7-1.4-9.5-3.6-.2-.2 0-.5.2-.3 2.7 1.6 6 2.5 9.5 2.5 2.4 0 5-.5 7.4-1.5.4-.2.7.2.2.5z" transform="translate(4 0)"/><path fill="#FF9900" d="M15.3 13.5c-.3-.3-1.7-.2-2.4-.1-.2 0-.2-.2-.1-.3 1.1-.8 3-.6 3.2-.3.2.3-.1 2.2-1.1 3.1-.2.1-.3.1-.2-.1.2-.5.7-1.9.6-2.3z" transform="translate(4 0)"/><path fill="#000" d="M13 9.7V8.6c0-.2.1-.3.3-.3h4.6c.2 0 .3.1.3.3v.9c0 .2-.1.4-.4.7l-2.4 3.4c.9 0 1.8.1 2.6.5.2.1.2.2.3.4v1.1c0 .2-.2.4-.4.3-1.4-.7-3.3-.8-4.9 0-.2.1-.4-.1-.4-.3v-1c0-.2 0-.5.2-.8l2.7-3.9h-2.4c-.2 0-.3-.1-.3-.3z"/></svg>