<svg xmlns="http://www.w3.org/2000/svg" viewBox="0 0 48 48"><path fill="#5865F2" d="M40.1 12.1c-2.9-1.4-6.1-2.4-9.4-2.9-.4.7-.9 1.7-1.2 2.5-3.5-.5-7-.5-10.5 0-.3-.8-.8-1.8-1.2-2.5-3.3.5-6.5 1.5-9.4 2.9C2.3 21 1.1 29.6 1.7 38.1c4 2.9 7.8 4.7 11.6 5.9.9-1.3 1.8-2.6 2.5-4-1.4-.5-2.7-1.2-3.9-2 .3-.2.6-.5 1-.7 7.5 3.5 15.7 3.5 23.1 0 .3.2.6.5 1 .7-1.2.7-2.6 1.4-4 2 .7 1.4 1.6 2.7 2.5 4 3.8-1.2 7.6-3 11.6-5.9.6-9.7-1.2-18.3-6-26zM16.5 32.7c-2.3 0-4.2-2.1-4.2-4.7s1.9-4.7 4.2-4.7 4.2 2.1 4.2 4.7-1.9 4.7-4.2 4.7zm15.5 0c-2.3 0-4.2-2.1-4.2-4.7s1.9-4.7 4.2-4.7 4.2 2.1 4.2 4.7-1.9 4.7-4.2 4.7z"/></svg>