<svg xmlns="http://www.w3.org/2000/svg" viewBox="0 0 192 192"><path fill="#FBBC04" d="M65.65 24.34a23.43 23.43 0 0 1 8.61-8.55 23.62 23.62 0 0 1 32.26 8.55q21.6 37.4 43.18 74.83a23.55 23.55 0 0 1 1.4 21.41 23.34 23.34 0 0 1-19.4 14.32 23.6 23.6 0 0 1-22.66-11.55Q87.45 86 65.84 48.65a23.61 23.61 0 0 1-.19-24.31z"/><path fill="#4285F4" d="M126.16 24.36a23.6 23.6 0 0 1 32.21-8.6 23.46 23.46 0 0 1 11.36 14.81 23.62 23.62 0 0 1-2.78 18.06q-21.55 37.4-43.14 74.78a23.6 23.6 0 0 1-32.36 8.66 23.46 23.46 0 0 1-11.34-14.86 23.66 23.66 0 0 1 2.84-18.11q21.6-37.36 43.21-74.74z"/><circle fill="#34A853" cx="46.6" cy="142.74" r="25.59"/></svg>
