<svg xmlns="http://www.w3.org/2000/svg" viewBox="0 0 192 192"><path fill="#FBBC04" d="M67.512 16.001C72.038 8.231 81.084 3.444 90.611 4.99c9.527 1.546 17.27 8.755 19.555 18.181l-43.31 75.024c-2.262 3.92-5.997 6.778-10.39 7.95-4.392 1.171-9.073.564-13.018-1.69-3.945-2.252-6.785-5.97-7.9-10.347-1.115-4.378-.418-9.027 1.94-12.93z"/><path fill="#4285F4" d="M124.488 175.999c-4.526 7.77-13.572 12.557-23.099 11.011-9.527-1.547-17.27-8.755-19.555-18.181l43.31-75.024c2.262-3.92 5.997-6.778 10.39-7.95 4.392-1.171 9.073-.564 13.018 1.69 3.945 2.252 6.785 5.97 7.9 10.347 1.115 4.378.418 9.027-1.94 12.93z"/><circle fill="#34A853" cx="40.5" cy="166.5" r="20.5"/></svg>
