<svg xmlns="http://www.w3.org/2000/svg" viewBox="0 0 24 24" fill="#31A8FF"><path d="M19.75.3H4.25C1.9.3 0 2.2 0 4.55v14.9c0 2.35 1.9 4.25 4.25 4.25h15.5c2.35 0 4.25-1.9 4.25-4.25V4.55C24 2.2 22.1.3 19.75.3zM9.84 12.77c0 .56-.08 1.08-.25 1.55-.17.47-.4.87-.7 1.21-.3.33-.66.59-1.08.77-.42.18-.88.27-1.37.27-.35 0-.65-.03-.91-.1v3.62H3.68V8.97c.4-.07.85-.13 1.35-.18.5-.05.98-.07 1.44-.07.53 0 1 .07 1.42.22.41.14.77.35 1.06.63.3.27.52.6.68 1 .16.4.24.84.24 1.33l-.03-.13zm-1.82.06c0-.59-.14-1.04-.42-1.35-.28-.31-.69-.47-1.22-.47-.18 0-.34.01-.48.03v3.67c.1.02.26.03.49.03.52 0 .92-.18 1.2-.53.29-.35.43-.82.43-1.38v.03zm12.3 1.77c0 .48-.1.91-.29 1.3-.19.38-.46.71-.8.97-.34.27-.75.47-1.22.61-.47.14-.99.21-1.55.21-.52 0-.99-.04-1.41-.12-.42-.08-.79-.2-1.12-.35v-1.78c.39.2.8.36 1.24.47.44.11.85.17 1.24.17.41 0 .72-.07.94-.22.22-.15.33-.36.33-.63 0-.15-.04-.29-.13-.41-.09-.12-.21-.24-.38-.35-.16-.11-.36-.23-.59-.35-.23-.12-.5-.25-.79-.39-.35-.17-.66-.35-.93-.55-.27-.2-.49-.42-.68-.66-.18-.24-.32-.51-.41-.81-.1-.3-.14-.65-.14-1.04 0-.47.09-.88.28-1.24.19-.36.44-.66.76-.9.32-.24.69-.42 1.12-.54.42-.12.87-.18 1.34-.18.44 0 .86.04 1.25.13.39.09.76.22 1.12.38l-.58 1.56c-.3-.14-.6-.25-.92-.34-.32-.09-.63-.13-.94-.13-.34 0-.6.07-.78.2-.18.14-.27.32-.27.55 0 .14.03.26.1.36.07.1.18.21.31.31.14.1.3.21.5.32.2.11.43.23.69.36.37.18.69.36.96.56.27.2.5.42.68.66.18.24.32.51.41.81.09.3.14.64.14 1.02z"/></svg>