<svg xmlns="http://www.w3.org/2000/svg" viewBox="0 0 48 48"><path fill="#E60023" d="M24 4a20 20 0 0 0-7.3 38.6c-.1-1.6-.2-4 .1-5.7l2.4-10.2s-.6-1.2-.6-3c0-2.8 1.6-4.9 3.6-4.9 1.7 0 2.5 1.3 2.5 2.8 0 1.7-1.1 4.3-1.7 6.7-.5 2 1 3.6 3 3.6 3.6 0 6.4-3.8 6.4-9.3 0-4.9-3.5-8.3-8.5-8.3-5.8 0-9.2 4.3-9.2 8.8 0 1.7.7 3.6 1.5 4.6.2.2.2.4.1.6l-.6 2.3c-.1.4-.3.5-.7.3-2.6-1.2-4.2-5-4.2-8 0-6.5 4.7-12.5 13.6-12.5 7.1 0 12.7 5.1 12.7 11.9 0 7.1-4.5 12.8-10.7 12.8-2.1 0-4.1-1.1-4.7-2.4l-1.3 4.9c-.5 1.8-1.7 4.1-2.6 5.5A20 20 0 1 0 24 4z"/></svg>
