<svg xmlns="http://www.w3.org/2000/svg" viewBox="0 0 24 24" fill="#9999FF"><path d="M19.75.3H4.25C1.9.3 0 2.2 0 4.55v14.9c0 2.35 1.9 4.25 4.25 4.25h15.5c2.35 0 4.25-1.9 4.25-4.25V4.55C24 2.2 22.1.3 19.75.3zM9.68 16.2H7.83v-4.46H5.81V16.2H3.96V6.2h1.85v3.73h2.02V6.2h1.85v10zm5.36-3.32c0 .56-.08 1.08-.25 1.55-.17.47-.4.87-.7 1.21-.3.33-.66.59-1.08.77-.42.18-.88.27-1.37.27-.35 0-.65-.03-.91-.1v3.62H8.88V9.08c.4-.07.85-.13 1.35-.18.5-.05.98-.07 1.44-.07.53 0 1 .07 1.42.22.41.14.77.35 1.06.63.3.27.52.6.68 1 .16.4.24.84.24 1.33l-.03-.13zm-2.02.06c0-.59-.14-1.04-.42-1.35-.28-.31-.69-.47-1.22-.47-.18 0-.34.01-.48.03v3.67c.1.02.26.03.49.03.52 0 .92-.18 1.2-.53.29-.35.43-.82.43-1.38z"/></svg>