<svg xmlns="http://www.w3.org/2000/svg" viewBox="0 0 24 24" fill="#B92B27"><path d="M12.738 18.701c-.831-1.635-1.805-3.287-3.708-3.287-.362 0-.727.061-1.057.214l-.65-1.297c.787-.677 2.062-1.221 3.708-1.221 2.566 0 3.881 1.232 4.928 2.806.621-1.327.929-3.108.929-5.391 0-5.717-1.787-8.658-5.04-8.658-3.213 0-5.001 2.941-5.001 8.658 0 5.69 1.788 8.616 5.001 8.616.301 0 .591-.014.89-.054zm1.892.946c.929.93 1.917 1.853 2.96 1.853 1.119 0 1.572-.864 1.661-1.554H21c-.123 1.95-1.473 4.054-4.92 4.054-3.401 0-5.103-2.073-6.348-4.146C4.41 19.354 1 14.83 1 10.525 1 4.917 4.929 1 11.018 1 17.182 1 21 4.945 21 10.525c0 4.396-3.523 8.97-8.952 9.122z"/></svg>