<svg xmlns="http://www.w3.org/2000/svg" viewBox="0 0 24 24" fill="#FF4500"><path d="M22 12.08c0-1.21-.99-2.2-2.2-2.2-.59 0-1.13.24-1.53.62-1.5-1.06-3.55-1.74-5.81-1.83l1.18-3.71 3.16.74c0 .77.62 1.39 1.39 1.39.78 0 1.4-.63 1.4-1.4 0-.78-.62-1.41-1.4-1.41-.55 0-1.02.32-1.25.78L13.32 4c-.18-.04-.36.07-.41.25l-1.32 4.16c-2.31.05-4.4.74-5.93 1.83-.4-.39-.95-.63-1.55-.63-1.21 0-2.2.99-2.2 2.2 0 .9.54 1.66 1.31 2-.04.21-.06.43-.06.66 0 3.32 3.86 6.02 8.62 6.02 4.77 0 8.63-2.69 8.63-6.02 0-.22-.02-.44-.06-.65.78-.34 1.32-1.11 1.32-2.01zM7 14.18c0-.78.63-1.42 1.41-1.42.78 0 1.41.64 1.41 1.42 0 .77-.63 1.4-1.41 1.4-.78 0-1.41-.63-1.41-1.4zm7.99 3.27c-.78.78-2.27.84-2.71.84-.43 0-1.92-.06-2.71-.84-.12-.12-.12-.31 0-.42.12-.11.31-.11.42 0 .5.5 1.56.68 2.29.68.73 0 1.79-.18 2.29-.68.12-.11.31-.11.42 0 .12.11.12.3 0 .42zm-.18-1.86c-.78 0-1.41-.63-1.41-1.4 0-.78.63-1.42 1.41-1.42.78 0 1.41.64 1.41 1.42 0 .77-.63 1.4-1.41 1.4z"/></svg>