<svg xmlns="http://www.w3.org/2000/svg" viewBox="0 0 48 48">
  <rect width="48" height="48" rx="10" fill="#FFFC00"/>
  <path fill="#FFFFFF" d="M24 9c4.6 0 7.6 3.3 7.6 7.8l-.1 2.7c.4-.2.7-.3 1.1-.3.5 0 1 .1 1.5.3.4.2.7.6.7 1.1 0 .8-.7 1.2-1.8 1.7-.5.2-1.2.5-1.2.7l.4 1c.7 1.8 1.9 3.9 4.8 4.4.4.1.6.4.6.7 0 1.1-2.4 1.8-4 2-.1.3-.2.7-.3 1-.1.3-.2.5-.5.5-.3 0-.6-.1-1-.1a6 6 0 0 0-1.2-.1c-.3 0-.6 0-.9.1-.8.1-1.4.6-2.2 1.2-1.1.8-2.4 1.8-4.3 1.8h-.1c-1.8 0-3.1-.9-4.2-1.8-.8-.6-1.5-1.1-2.2-1.2-.3-.1-.6-.1-.9-.1-.5 0-.9.1-1.2.1-.4.1-.7.1-1 .1-.4 0-.5-.2-.5-.5-.1-.3-.2-.7-.3-1-1.7-.3-4-.9-4.1-2 0-.4.3-.7.6-.8 2.9-.4 4-2.6 4.8-4.4l.4-1c-.1-.2-.7-.5-1.2-.7-1.1-.5-1.8-.9-1.8-1.7 0-.5.2-.9.7-1.1.4-.2.9-.3 1.4-.3.4 0 .8.1 1.2.3l-.1-2.6C16.4 12.3 19.4 9 24 9z"/>
</svg>
