<svg xmlns="http://www.w3.org/2000/svg" viewBox="0 0 48 48"><path fill="#000" d="M38.1 13.7a10.5 10.5 0 0 1-6-1.9 10.4 10.4 0 0 1-4.4-7.4V4h-6.4v25.5a5.5 5.5 0 0 1-5.5 5.4 5.5 5.5 0 0 1-5.5-5.4 5.5 5.5 0 0 1 7.2-5.2v-6.5a12 12 0 0 0-1.7-.1A11.9 11.9 0 0 0 4 29.6 11.9 11.9 0 0 0 15.8 41.5 11.9 11.9 0 0 0 27.7 29.6V16.4a16.7 16.7 0 0 0 10.4 3.6v-6.3z"/><path fill="#25F4EE" d="M35.9 11.6a10.4 10.4 0 0 1-2.2-7.2h-2.2a10.4 10.4 0 0 0 4.4 7.2zM12.4 24.3a5.5 5.5 0 0 0-5.4 7.7 5.5 5.5 0 0 1 4.3-9 5.5 5.5 0 0 1 1.7.3v-6.5a12 12 0 0 0-1.7-.1h-.4v6.5l1.5.1z"/><path fill="#FE2C55" d="M38.1 13.7v6.3a16.7 16.7 0 0 1-10.4-3.6v13.2A11.9 11.9 0 0 1 15.8 41.5a11.9 11.9 0 0 1-6.7-2 11.9 11.9 0 0 0 8.7 3.7 11.9 11.9 0 0 0 11.9-11.8V18.1a16.7 16.7 0 0 0 10.4 3.6v-7.6a8 8 0 0 1-2-.4z"/></svg>
